<svg width="784" height="702" viewBox="0 0 784 702" fill="none" xmlns="http://www.w3.org/2000/svg">
<g clip-path="url(#clip0)">
<path d="M777.056 577.806C769.924 621.675 737.793 655.642 703.586 685.326C698.81 689.472 694.022 693.537 689.223 697.521C689.19 697.54 689.157 697.577 689.124 697.598C688.893 697.788 688.661 697.979 688.447 698.169C687.457 698.99 686.466 699.812 685.483 700.623L686.1 700.816L688.02 701.405C687.361 701.225 686.711 701.052 686.052 700.871C685.855 700.815 685.651 700.769 685.455 700.713C662.775 694.588 639.634 687.867 621.093 673.518C601.857 658.615 588.61 633.209 595.244 609.801C596.117 606.734 597.33 603.774 598.86 600.976C599.485 599.805 600.175 598.673 600.9 597.556C605.283 590.672 611.422 585.079 618.684 581.353C625.946 577.627 634.07 575.902 642.221 576.355C650.371 576.808 658.253 579.424 665.057 583.932C671.862 588.441 677.342 594.68 680.934 602.007C680.611 576.215 657.045 557.407 634.942 544.095C612.831 530.793 587.796 516.421 580.845 491.567C576.969 477.74 580.229 463.498 587.84 451.465C588.076 451.099 588.312 450.733 588.558 450.375C597.891 436.304 612.191 426.271 628.601 422.28C659.22 415.335 691.309 428.126 716.424 446.974C756.845 477.297 785.162 527.928 777.056 577.806Z" fill="#F2F2F2"/>
<path d="M712.111 529.345C719.174 537.887 724.953 547.412 729.266 557.621C732.975 566.763 735.295 576.408 736.151 586.236C738.011 606.425 734.18 626.831 726.54 645.515C720.597 659.699 712.884 673.076 703.586 685.326C698.809 689.472 694.022 693.537 689.223 697.521C689.19 697.54 689.157 697.577 689.123 697.597C688.892 697.788 688.661 697.979 688.447 698.169C687.457 698.99 686.466 699.812 685.483 700.623L686.1 700.816L688.02 701.405C687.361 701.224 686.711 701.052 686.051 700.871C685.855 700.815 685.651 700.769 685.455 700.713C685.484 684.589 681.648 668.692 674.267 654.356C666.885 640.019 656.175 627.661 643.032 618.315C629.88 609.136 614.745 603.195 598.86 600.976C599.485 599.805 600.175 598.673 600.9 597.556C607.046 598.509 613.096 600.004 618.98 602.022C640.003 609.178 658.163 622.911 670.772 641.188C682.112 657.798 688.477 677.297 689.118 697.397C689.91 696.485 690.701 695.555 691.466 694.637C706.064 677.342 718.551 658.002 725.994 636.52C732.501 618.303 734.428 598.765 731.604 579.628C728.283 558.791 717.61 540.402 703.502 524.972C688.391 508.46 670.248 494.424 651.26 482.657C631.809 470.58 610.953 460.927 589.157 453.915C588.665 453.753 588.254 453.409 588.008 452.953C587.763 452.497 587.703 451.964 587.839 451.465C587.926 451.021 588.184 450.63 588.558 450.375C588.752 450.262 588.969 450.194 589.194 450.177C589.418 450.16 589.643 450.193 589.853 450.275C592.544 451.143 595.22 452.028 597.881 452.968C620.048 460.795 641.157 471.345 660.723 484.376C679.617 496.926 697.758 511.679 712.111 529.345Z" fill="white"/>
<path d="M326.593 429.169C324.413 429.165 322.316 428.334 320.726 426.843C319.136 425.352 318.172 423.313 318.03 421.138L316.754 401.669C316.605 399.396 317.366 397.156 318.869 395.442C320.372 393.729 322.494 392.683 324.769 392.534L477.337 382.545C479.743 382.386 482.156 382.703 484.44 383.477C486.723 384.251 488.831 385.467 490.644 387.056C492.457 388.645 493.939 390.575 495.005 392.737C496.072 394.898 496.702 397.249 496.859 399.654C497.017 402.059 496.699 404.471 495.923 406.754C495.148 409.036 493.93 411.143 492.34 412.954C490.75 414.766 488.819 416.247 486.656 417.312C484.493 418.377 482.142 419.005 479.736 419.162L327.168 429.15C326.976 429.162 326.784 429.168 326.593 429.169Z" fill="#FEBD2E"/>
<path d="M356.677 431.679C354.455 431.675 352.32 430.812 350.72 429.27C349.12 427.728 348.178 425.627 348.093 423.407L347.005 394.328C346.963 393.201 347.144 392.076 347.536 391.018C347.929 389.96 348.526 388.99 349.294 388.163C350.062 387.336 350.985 386.668 352.011 386.198C353.037 385.728 354.145 385.464 355.273 385.422L480.734 380.734C483.012 380.649 485.23 381.472 486.901 383.022C488.572 384.572 489.559 386.722 489.644 389L490.731 418.078C490.773 419.206 490.593 420.331 490.2 421.388C489.807 422.446 489.21 423.416 488.442 424.243C487.675 425.071 486.752 425.738 485.726 426.209C484.7 426.679 483.591 426.943 482.463 426.985L357.002 431.673C356.894 431.677 356.785 431.679 356.677 431.679Z" fill="#2F2E41"/>
<path d="M503.698 699.729H484.182C481.903 699.726 479.719 698.82 478.107 697.21C476.496 695.599 475.59 693.415 475.587 691.137V528.528C475.59 526.25 476.496 524.066 478.107 522.455C479.719 520.844 481.903 519.938 484.182 519.936H503.698C505.976 519.938 508.161 520.844 509.772 522.455C511.383 524.066 512.29 526.25 512.292 528.528V691.137C512.29 693.415 511.383 695.599 509.772 697.21C508.161 698.82 505.976 699.726 503.698 699.729Z" fill="#2F2E41"/>
<path d="M417.075 613.775L400.386 603.662C398.439 602.479 397.04 600.572 396.498 598.36C395.955 596.148 396.312 593.81 397.491 591.861L481.802 452.803C482.985 450.856 484.893 449.458 487.106 448.916C489.319 448.373 491.657 448.73 493.607 449.909L510.296 460.022C512.243 461.205 513.641 463.112 514.184 465.324C514.727 467.537 514.369 469.874 513.19 471.823L428.88 610.881C427.696 612.828 425.789 614.226 423.576 614.769C421.363 615.311 419.025 614.954 417.075 613.775V613.775Z" fill="#2F2E41"/>
<path d="M474.057 350.236C511.3 350.236 541.491 320.053 541.491 282.82C541.491 245.588 511.3 215.405 474.057 215.405C436.815 215.405 406.624 245.588 406.624 282.82C406.624 320.053 436.815 350.236 474.057 350.236Z" fill="#FEBD2E"/>
<path d="M437.556 305.838C435.387 305.126 433.395 303.957 431.716 302.411C430.603 301.307 429.745 299.973 429.202 298.503C428.659 297.033 428.444 295.461 428.572 293.899C428.643 292.786 428.97 291.705 429.528 290.739C430.086 289.774 430.859 288.95 431.789 288.333C434.2 286.786 437.425 286.782 440.709 288.229L440.585 261.911L443.229 261.898L443.375 292.838L441.338 291.556C438.975 290.073 435.601 289.029 433.217 290.558C432.627 290.962 432.139 291.497 431.791 292.12C431.442 292.743 431.241 293.439 431.205 294.152C431.116 295.316 431.278 296.485 431.682 297.58C432.085 298.675 432.72 299.671 433.542 300.498C436.462 303.287 440.722 304.159 445.581 304.938L445.162 307.548C442.58 307.207 440.035 306.634 437.556 305.838V305.838Z" fill="#2F2E41"/>
<path d="M413.325 260.581L412.979 263.202L427.099 265.066L427.445 262.445L413.325 260.581Z" fill="#2F2E41"/>
<path d="M457.894 266.464L457.548 269.084L471.668 270.949L472.014 268.328L457.894 266.464Z" fill="#2F2E41"/>
<path d="M530.365 572.156H416.653C413.673 572.153 410.817 570.968 408.71 568.862C406.603 566.755 405.417 563.899 405.414 560.92L429.22 378.417C429.239 375.452 430.431 372.614 432.536 370.525C434.64 368.436 437.487 367.264 440.453 367.266H480.808C496.926 367.284 512.379 373.694 523.777 385.088C535.174 396.483 541.585 411.932 541.604 428.046V560.92C541.6 563.899 540.415 566.755 538.308 568.862C536.201 570.968 533.344 572.153 530.365 572.156V572.156Z" fill="#2F2E41"/>
<path d="M501.731 562.427C501.039 563.935 499.927 565.211 498.527 566.101C497.127 566.992 495.499 567.459 493.84 567.446L474.325 567.277C473.197 567.267 472.081 567.035 471.042 566.594C470.003 566.153 469.061 565.512 468.27 564.708C467.479 563.903 466.854 562.95 466.431 561.904C466.009 560.858 465.796 559.739 465.806 558.61L467.132 405.762C467.153 403.353 467.648 400.971 468.589 398.754C469.531 396.536 470.9 394.525 472.619 392.836C474.338 391.147 476.373 389.813 478.607 388.911C480.842 388.008 483.232 387.554 485.642 387.575C488.052 387.596 490.434 388.091 492.652 389.033C494.871 389.974 496.882 391.343 498.572 393.061C500.261 394.779 501.595 396.814 502.498 399.047C503.401 401.281 503.855 403.671 503.834 406.08L502.509 558.928C502.5 560.136 502.235 561.329 501.731 562.427Z" fill="#FEBD2E"/>
<path d="M510.352 521.623C509.661 523.131 508.548 524.407 507.148 525.297C505.748 526.188 504.121 526.655 502.462 526.642L469.129 526.353C466.85 526.33 464.674 525.405 463.077 523.781C461.48 522.156 460.592 519.964 460.61 517.686L461.698 392.176C461.708 391.048 461.94 389.932 462.381 388.894C462.822 387.855 463.463 386.913 464.268 386.122C465.073 385.331 466.026 384.707 467.072 384.284C468.119 383.861 469.238 383.649 470.367 383.659L503.699 383.948C504.828 383.957 505.943 384.189 506.982 384.63C508.021 385.071 508.963 385.712 509.754 386.517C510.545 387.321 511.17 388.274 511.593 389.32C512.016 390.366 512.228 391.486 512.218 392.614L511.13 518.124C511.121 519.332 510.856 520.525 510.352 521.623V521.623Z" fill="#2F2E41"/>
<path d="M475.319 242.836C466.304 235.379 454.254 242.432 444.059 241.431C434.306 240.473 426.456 231.892 424.317 222.659C421.822 211.886 427.231 200.943 435.38 194.042C444.305 186.484 456.288 184.135 467.707 185.285C480.795 186.603 492.853 192.462 503.709 199.619C514.183 206.307 523.848 214.184 532.511 223.093C540.273 231.343 546.905 241.227 549.177 252.484C551.241 262.714 550.03 274.117 544.125 282.929C540.991 287.448 536.745 291.083 531.796 293.483C526.639 296.137 521.122 298.069 516.134 301.054C508.592 305.568 501.353 314.766 503.921 324.147C504.472 326.196 505.519 328.079 506.969 329.629C508.711 331.49 511.741 328.929 509.994 327.063C506.926 323.785 506.96 319.336 508.486 315.324C510.304 310.802 513.606 307.031 517.848 304.63C523.07 301.513 528.862 299.54 534.22 296.689C539.351 294.08 543.776 290.27 547.117 285.584C553.421 276.465 555.136 264.72 553.461 253.917C551.649 242.226 545.423 231.69 537.702 222.908C529.3 213.351 519.05 205.32 508.597 198.13C497.381 190.414 485.029 183.946 471.455 181.779C459.689 179.901 447.003 181.436 436.871 188.02C427.413 194.165 420.268 204.562 419.756 216.038C419.593 221.259 420.824 226.428 423.323 231.015C425.822 235.601 429.498 239.439 433.974 242.134C438.563 244.763 443.863 245.884 449.124 245.341C454.751 244.873 460.357 243.042 466.036 243.413C468.605 243.52 471.069 244.461 473.054 246.094C475.024 247.723 477.272 244.452 475.319 242.836V242.836Z" fill="#2F2E41"/>
<path d="M396.026 594.21C396.05 594.061 396.078 593.912 396.11 593.763C396.346 592.659 396.797 591.613 397.44 590.684C398.082 589.756 398.903 588.964 399.853 588.355L416.253 577.78C418.169 576.548 420.496 576.125 422.723 576.606C424.951 577.086 426.896 578.43 428.134 580.343L478.724 658.756C479.959 660.671 480.383 662.999 479.902 665.226C479.421 667.453 478.075 669.399 476.16 670.634L459.76 681.209C457.843 682.442 455.516 682.864 453.289 682.383C451.062 681.903 449.116 680.559 447.879 678.646L397.289 600.233C396.133 598.452 395.682 596.305 396.026 594.21V594.21Z" fill="#2F2E41"/>
<path d="M334.606 77.4281C333.346 74.4371 331.236 71.8811 328.538 70.0764C325.84 68.2717 322.672 67.2975 319.426 67.2744H16.425C12.0696 67.2768 7.89315 69.0075 4.81336 72.0865C1.73358 75.1654 0.00234032 79.3407 0 83.695V466.916C0.00234032 471.27 1.73358 475.445 4.81336 478.524C7.89315 481.603 12.0696 483.334 16.425 483.336H319.437C323.791 483.33 327.965 481.598 331.044 478.52C334.124 475.442 335.856 471.269 335.862 466.916V83.695C335.869 81.5439 335.446 79.4132 334.617 77.4281H334.606ZM332.203 466.916C332.199 470.302 330.852 473.549 328.456 475.944C326.061 478.338 322.813 479.685 319.426 479.69H16.425C13.0368 479.689 9.78744 478.343 7.39138 475.948C4.99532 473.553 3.64867 470.305 3.64752 466.918V83.6972C3.65214 80.3107 4.99983 77.0643 7.39507 74.6697C9.79032 72.2751 13.0377 70.9278 16.425 70.9231H319.437C321.988 70.9328 324.479 71.7024 326.592 73.1336C328.704 74.5648 330.342 76.5928 331.297 78.9587C331.482 79.4302 331.643 79.9113 331.777 80.3999C332.067 81.475 332.214 82.5837 332.214 83.6972L332.203 466.916Z" fill="#3F3D56"/>
<path d="M271.374 157.752H180.105C178.169 157.752 176.312 156.983 174.942 155.614C173.573 154.245 172.804 152.388 172.804 150.452C172.804 148.516 173.573 146.659 174.942 145.29C176.312 143.921 178.169 143.152 180.105 143.152H271.374C273.31 143.152 275.167 143.921 276.537 145.29C277.906 146.659 278.675 148.516 278.675 150.452C278.675 152.388 277.906 154.245 276.537 155.614C275.167 156.983 273.31 157.752 271.374 157.752V157.752Z" fill="#3F3D56"/>
<path d="M271.374 196.074H180.105C179.146 196.075 178.195 195.887 177.308 195.521C176.421 195.154 175.615 194.617 174.936 193.939C174.257 193.261 173.718 192.456 173.351 191.57C172.983 190.683 172.794 189.733 172.794 188.774C172.794 187.814 172.983 186.864 173.351 185.978C173.718 185.092 174.257 184.287 174.936 183.609C175.615 182.931 176.421 182.393 177.308 182.027C178.195 181.661 179.146 181.473 180.105 181.474H271.374C272.333 181.473 273.284 181.661 274.171 182.027C275.058 182.393 275.864 182.931 276.543 183.609C277.222 184.287 277.761 185.092 278.128 185.978C278.496 186.864 278.685 187.814 278.685 188.774C278.685 189.733 278.496 190.683 278.128 191.57C277.761 192.456 277.222 193.261 276.543 193.939C275.864 194.617 275.058 195.154 274.171 195.521C273.284 195.887 272.333 196.075 271.374 196.074V196.074Z" fill="#3F3D56"/>
<path d="M133.277 217.894H66.5782C64.4002 217.892 62.3121 217.026 60.7721 215.486C59.232 213.947 58.3658 211.859 58.3635 209.682V130.994C58.3658 128.816 59.232 126.729 60.7721 125.189C62.3121 123.65 64.4002 122.784 66.5782 122.781H133.277C135.455 122.784 137.543 123.65 139.083 125.189C140.623 126.729 141.489 128.816 141.491 130.994V209.682C141.489 211.859 140.623 213.947 139.083 215.486C137.543 217.026 135.455 217.892 133.277 217.894V217.894Z" fill="#FEBD2E"/>
<path d="M270.74 274.543H64.4748C62.5383 274.543 60.6811 273.774 59.3117 272.405C57.9424 271.036 57.1731 269.179 57.1731 267.243C57.1731 265.307 57.9424 263.451 59.3117 262.082C60.6811 260.713 62.5383 259.944 64.4748 259.944H270.74C272.677 259.944 274.534 260.713 275.903 262.082C277.273 263.451 278.042 265.307 278.042 267.243C278.042 269.179 277.273 271.036 275.903 272.405C274.534 273.774 272.677 274.543 270.74 274.543V274.543Z" fill="#CCCCCC"/>
<path d="M270.74 312.865H64.4748C62.5383 312.865 60.6811 312.096 59.3117 310.727C57.9424 309.358 57.1731 307.501 57.1731 305.565C57.1731 303.629 57.9424 301.773 59.3117 300.404C60.6811 299.035 62.5383 298.266 64.4748 298.266H270.74C272.677 298.266 274.534 299.035 275.903 300.404C277.273 301.773 278.042 303.629 278.042 305.565C278.042 307.501 277.273 309.358 275.903 310.727C274.534 312.096 272.677 312.865 270.74 312.865V312.865Z" fill="#CCCCCC"/>
<path d="M270.74 351.187H64.4748C62.54 351.185 60.6853 350.414 59.318 349.046C57.9508 347.677 57.1829 345.822 57.1829 343.887C57.1829 341.953 57.9508 340.098 59.318 338.729C60.6853 337.36 62.54 336.59 64.4748 336.588H270.74C271.7 336.586 272.65 336.774 273.537 337.141C274.424 337.507 275.231 338.044 275.91 338.722C276.589 339.4 277.127 340.205 277.495 341.092C277.863 341.978 278.052 342.928 278.052 343.887C278.052 344.847 277.863 345.797 277.495 346.683C277.127 347.569 276.589 348.375 275.91 349.053C275.231 349.731 274.424 350.268 273.537 350.634C272.65 351.001 271.7 351.188 270.74 351.187V351.187Z" fill="#CCCCCC"/>
<path d="M270.74 389.509H64.4748C62.5383 389.509 60.6811 388.74 59.3117 387.371C57.9424 386.002 57.1731 384.146 57.1731 382.21C57.1731 380.274 57.9424 378.417 59.3117 377.048C60.6811 375.679 62.5383 374.91 64.4748 374.91H270.74C272.677 374.91 274.534 375.679 275.903 377.048C277.273 378.417 278.042 380.274 278.042 382.21C278.042 384.146 277.273 386.002 275.903 387.371C274.534 388.74 272.677 389.509 270.74 389.509V389.509Z" fill="#CCCCCC"/>
<path d="M270.74 427.831H64.4748C62.5383 427.831 60.6811 427.062 59.3117 425.693C57.9424 424.324 57.1731 422.468 57.1731 420.532C57.1731 418.596 57.9424 416.739 59.3117 415.37C60.6811 414.001 62.5383 413.232 64.4748 413.232H270.74C272.677 413.232 274.534 414.001 275.903 415.37C277.273 416.739 278.042 418.596 278.042 420.532C278.042 422.468 277.273 424.324 275.903 425.693C274.534 427.062 272.677 427.831 270.74 427.831V427.831Z" fill="#CCCCCC"/>
<path d="M336.871 140.894C375.788 140.894 407.337 109.354 407.337 70.4471C407.337 31.5402 375.788 0 336.871 0C297.953 0 266.405 31.5402 266.405 70.4471C266.405 109.354 297.953 140.894 336.871 140.894Z" fill="#FEBD2E"/>
<path d="M329.888 97.3206C328.303 97.3233 326.759 96.8106 325.491 95.8598L325.413 95.8008L308.852 83.136C308.085 82.5481 307.441 81.815 306.958 80.9785C306.474 80.142 306.16 79.2184 306.034 78.2605C305.907 77.3027 305.97 76.3293 306.22 75.3959C306.47 74.4625 306.901 73.5875 307.489 72.8207C308.077 72.0539 308.81 71.4104 309.647 70.927C310.484 70.4435 311.408 70.1296 312.366 70.0031C313.324 69.8765 314.298 69.9399 315.231 70.1896C316.165 70.4393 317.04 70.8703 317.807 71.4582L328.534 79.6816L353.881 46.622C354.469 45.8555 355.202 45.2123 356.038 44.729C356.875 44.2458 357.798 43.932 358.756 43.8055C359.714 43.679 360.687 43.7424 361.62 43.992C362.553 44.2415 363.428 44.6724 364.195 45.26L364.197 45.2616L364.04 45.48L364.201 45.2616C365.748 46.4501 366.76 48.2034 367.015 50.1368C367.27 52.0703 366.748 54.026 365.562 55.5747L335.748 94.4426C335.058 95.3382 334.171 96.0628 333.156 96.5604C332.141 97.058 331.025 97.3151 329.894 97.3118L329.888 97.3206Z" fill="white"/>
<path d="M782.697 702H303.28C302.935 702 302.603 701.863 302.359 701.619C302.115 701.374 301.978 701.043 301.978 700.698C301.978 700.352 302.115 700.021 302.359 699.777C302.603 699.532 302.935 699.395 303.28 699.395H782.697C783.043 699.395 783.374 699.532 783.619 699.777C783.863 700.021 784 700.352 784 700.698C784 701.043 783.863 701.374 783.619 701.619C783.374 701.863 783.043 702 782.697 702Z" fill="#3F3D56"/>
</g>
<defs>
<clipPath id="clip0">
<rect width="784" height="702" fill="white"/>
</clipPath>
</defs>
</svg>
